<mxfile host="app.diagrams.net" modified="2021-09-04T10:43:31.088Z" agent="5.0 (Macintosh; Intel Mac OS X 10_15_7) AppleWebKit/605.1.15 (KHTML, like Gecko) Version/14.1.1 Safari/605.1.15" etag="IAMGQV2wKJCVCENiS3Rj" version="15.0.6" type="github">
  <diagram id="ANAUuJqYN83Xgmc9TEa5" name="第 1 页">
    <mxGraphModel dx="946" dy="501" grid="1" gridSize="10" guides="1" tooltips="1" connect="1" arrows="1" fold="1" page="1" pageScale="1" pageWidth="827" pageHeight="1169" math="0" shadow="0">
      <root>
        <mxCell id="0" />
        <mxCell id="1" parent="0" />
        <mxCell id="-hhRETg1GXGdjl2k0zsn-1" value="FIN, ACK&lt;br&gt;seq = x&lt;br&gt;ack = y" style="rounded=0;orthogonalLoop=1;jettySize=auto;html=1;entryX=0;entryY=0;entryDx=0;entryDy=0;fontSize=16;exitX=1;exitY=0;exitDx=0;exitDy=0;strokeWidth=2;" parent="1" source="-hhRETg1GXGdjl2k0zsn-2" target="-hhRETg1GXGdjl2k0zsn-8" edge="1">
          <mxGeometry relative="1" as="geometry" />
        </mxCell>
        <mxCell id="-hhRETg1GXGdjl2k0zsn-2" value="FIN_WAIT_1" style="rounded=0;whiteSpace=wrap;html=1;fontSize=16;gradientColor=#ffd966;fillColor=#fff2cc;strokeColor=#d6b656;" parent="1" vertex="1">
          <mxGeometry x="120" y="180" width="120" height="140" as="geometry" />
        </mxCell>
        <mxCell id="-hhRETg1GXGdjl2k0zsn-3" value="FIN_WAIT_2" style="rounded=0;whiteSpace=wrap;html=1;fontSize=16;gradientColor=#ffa500;fillColor=#ffcd28;strokeColor=#d79b00;" parent="1" vertex="1">
          <mxGeometry x="120" y="320" width="120" height="210" as="geometry" />
        </mxCell>
        <mxCell id="-hhRETg1GXGdjl2k0zsn-24" value="&lt;font color=&quot;#97d077&quot; style=&quot;font-size: 16px&quot;&gt;ACK&lt;br style=&quot;font-size: 16px&quot;&gt;seq = x + 1&lt;br style=&quot;font-size: 16px&quot;&gt;ack = y + 101&amp;nbsp;&lt;/font&gt;" style="rounded=0;orthogonalLoop=1;jettySize=auto;html=1;entryX=0;entryY=0;entryDx=0;entryDy=0;exitX=1;exitY=0;exitDx=0;exitDy=0;fillColor=#d5e8d4;strokeColor=#82b366;strokeWidth=2;fontSize=16;" parent="1" source="-hhRETg1GXGdjl2k0zsn-4" target="-hhRETg1GXGdjl2k0zsn-11" edge="1">
          <mxGeometry relative="1" as="geometry">
            <mxPoint x="240" y="520" as="sourcePoint" />
            <mxPoint x="480" y="660" as="targetPoint" />
          </mxGeometry>
        </mxCell>
        <mxCell id="-hhRETg1GXGdjl2k0zsn-4" value="TIME_WAIT" style="rounded=0;whiteSpace=wrap;html=1;fontSize=16;gradientColor=#ea6b66;fillColor=#f8cecc;strokeColor=#b85450;" parent="1" vertex="1">
          <mxGeometry x="120" y="530" width="120" height="120" as="geometry" />
        </mxCell>
        <mxCell id="-hhRETg1GXGdjl2k0zsn-5" value="CLOSED" style="rounded=0;whiteSpace=wrap;html=1;fontSize=16;gradientColor=#b3b3b3;fillColor=#f5f5f5;strokeColor=#666666;" parent="1" vertex="1">
          <mxGeometry x="120" y="650" width="120" height="60" as="geometry" />
        </mxCell>
        <mxCell id="-hhRETg1GXGdjl2k0zsn-6" value="ACK &lt;br&gt;seq = y&lt;br&gt;ack = x+1" style="edgeStyle=none;rounded=0;orthogonalLoop=1;jettySize=auto;html=1;entryX=1;entryY=0;entryDx=0;entryDy=0;fontSize=16;exitX=0;exitY=0;exitDx=0;exitDy=0;strokeWidth=2;" parent="1" source="-hhRETg1GXGdjl2k0zsn-8" target="-hhRETg1GXGdjl2k0zsn-3" edge="1">
          <mxGeometry relative="1" as="geometry" />
        </mxCell>
        <mxCell id="-hhRETg1GXGdjl2k0zsn-7" value="" style="edgeStyle=none;rounded=0;orthogonalLoop=1;jettySize=auto;html=1;fontSize=16;" parent="1" target="-hhRETg1GXGdjl2k0zsn-10" edge="1">
          <mxGeometry relative="1" as="geometry">
            <mxPoint x="540" y="360" as="sourcePoint" />
          </mxGeometry>
        </mxCell>
        <mxCell id="-hhRETg1GXGdjl2k0zsn-8" value="CLOST_WAIT" style="rounded=0;whiteSpace=wrap;html=1;fontSize=16;gradientColor=#7ea6e0;fillColor=#dae8fc;strokeColor=#6c8ebf;" parent="1" vertex="1">
          <mxGeometry x="480" y="230" width="120" height="150" as="geometry" />
        </mxCell>
        <mxCell id="-hhRETg1GXGdjl2k0zsn-9" value="&lt;span style=&quot;color: rgb(255 , 0 , 255)&quot;&gt;FIN,ACK&lt;/span&gt;&lt;br style=&quot;color: rgb(255 , 0 , 255)&quot;&gt;&lt;span style=&quot;color: rgb(255 , 0 , 255)&quot;&gt;seq=y+100&lt;/span&gt;&lt;br style=&quot;color: rgb(255 , 0 , 255)&quot;&gt;&lt;span style=&quot;color: rgb(255 , 0 , 255)&quot;&gt;ack = x + 1&lt;/span&gt;&lt;font color=&quot;#ff00ff&quot;&gt;&lt;br&gt;&lt;/font&gt;" style="edgeStyle=none;rounded=0;orthogonalLoop=1;jettySize=auto;html=1;fontSize=16;exitX=0;exitY=0;exitDx=0;exitDy=0;strokeWidth=2;fillColor=#e1d5e7;strokeColor=#9673a6;" parent="1" source="-hhRETg1GXGdjl2k0zsn-10" edge="1">
          <mxGeometry relative="1" as="geometry">
            <mxPoint x="240" y="450" as="targetPoint" />
          </mxGeometry>
        </mxCell>
        <mxCell id="-hhRETg1GXGdjl2k0zsn-10" value="LAT_ACK" style="rounded=0;whiteSpace=wrap;html=1;fontSize=16;gradientColor=#d5739d;fillColor=#e6d0de;strokeColor=#996185;" parent="1" vertex="1">
          <mxGeometry x="480" y="380" width="120" height="280" as="geometry" />
        </mxCell>
        <mxCell id="-hhRETg1GXGdjl2k0zsn-23" value="" style="edgeStyle=orthogonalEdgeStyle;rounded=0;orthogonalLoop=1;jettySize=auto;html=1;" parent="1" target="-hhRETg1GXGdjl2k0zsn-10" edge="1">
          <mxGeometry relative="1" as="geometry">
            <mxPoint x="540" y="660" as="sourcePoint" />
          </mxGeometry>
        </mxCell>
        <mxCell id="-hhRETg1GXGdjl2k0zsn-11" value="CLOSED" style="rounded=0;whiteSpace=wrap;html=1;fontSize=16;gradientColor=#b3b3b3;fillColor=#f5f5f5;strokeColor=#666666;" parent="1" vertex="1">
          <mxGeometry x="480" y="650" width="120" height="60" as="geometry" />
        </mxCell>
        <mxCell id="-hhRETg1GXGdjl2k0zsn-12" value="close()" style="text;html=1;align=center;verticalAlign=middle;resizable=0;points=[];autosize=1;strokeColor=#36393d;fillColor=#ffff88;fontSize=16;" parent="1" vertex="1">
          <mxGeometry x="510" y="370" width="60" height="20" as="geometry" />
        </mxCell>
        <mxCell id="-hhRETg1GXGdjl2k0zsn-13" value="&lt;span style=&quot;color: rgb(255 , 51 , 51)&quot;&gt;PUSH, ACK&lt;/span&gt;&lt;br style=&quot;color: rgb(255 , 51 , 51)&quot;&gt;&lt;span style=&quot;color: rgb(255 , 51 , 51)&quot;&gt;seq=y&lt;/span&gt;&lt;br style=&quot;color: rgb(255 , 51 , 51)&quot;&gt;&lt;span style=&quot;color: rgb(255 , 51 , 51)&quot;&gt;ack = x + 1&lt;/span&gt;&lt;br style=&quot;color: rgb(255 , 51 , 51)&quot;&gt;&lt;span style=&quot;color: rgb(255 , 51 , 51)&quot;&gt;len = 100&lt;/span&gt;&lt;font color=&quot;#ff3333&quot;&gt;&lt;br&gt;&lt;/font&gt;" style="edgeStyle=none;rounded=0;orthogonalLoop=1;jettySize=auto;html=1;fontSize=16;strokeWidth=2;fillColor=#f8cecc;strokeColor=#b85450;" parent="1" edge="1">
          <mxGeometry x="-0.0533" y="18" relative="1" as="geometry">
            <mxPoint x="480" y="300" as="sourcePoint" />
            <mxPoint x="360" y="350" as="targetPoint" />
            <mxPoint as="offset" />
          </mxGeometry>
        </mxCell>
        <mxCell id="-hhRETg1GXGdjl2k0zsn-14" value="客户端" style="text;html=1;align=center;verticalAlign=middle;resizable=0;points=[];autosize=1;strokeColor=none;fillColor=none;fontSize=16;" parent="1" vertex="1">
          <mxGeometry x="140" y="90" width="60" height="20" as="geometry" />
        </mxCell>
        <mxCell id="-hhRETg1GXGdjl2k0zsn-15" value="ESTABLISH" style="rounded=0;whiteSpace=wrap;html=1;fontSize=16;gradientColor=#97d077;fillColor=#d5e8d4;strokeColor=#82b366;" parent="1" vertex="1">
          <mxGeometry x="480" y="80" width="120" height="150" as="geometry" />
        </mxCell>
        <mxCell id="-hhRETg1GXGdjl2k0zsn-16" value="ESTABLISH" style="rounded=0;whiteSpace=wrap;html=1;fontSize=16;gradientColor=#97d077;fillColor=#d5e8d4;strokeColor=#82b366;" parent="1" vertex="1">
          <mxGeometry x="120" y="80" width="120" height="100" as="geometry" />
        </mxCell>
        <mxCell id="-hhRETg1GXGdjl2k0zsn-17" value="shutdown()&lt;br&gt;关闭写方向" style="text;html=1;align=center;verticalAlign=middle;resizable=0;points=[];autosize=1;strokeColor=#36393d;fillColor=#ffff88;fontSize=16;" parent="1" vertex="1">
          <mxGeometry x="130" y="150" width="100" height="40" as="geometry" />
        </mxCell>
        <mxCell id="-hhRETg1GXGdjl2k0zsn-18" value="客户端" style="text;html=1;align=center;verticalAlign=middle;resizable=0;points=[];autosize=1;strokeColor=none;fillColor=none;fontSize=16;" parent="1" vertex="1">
          <mxGeometry x="150" y="50" width="60" height="20" as="geometry" />
        </mxCell>
        <mxCell id="-hhRETg1GXGdjl2k0zsn-19" value="服务端" style="text;html=1;align=center;verticalAlign=middle;resizable=0;points=[];autosize=1;strokeColor=none;fillColor=none;fontSize=16;" parent="1" vertex="1">
          <mxGeometry x="510" y="50" width="60" height="20" as="geometry" />
        </mxCell>
        <mxCell id="-hhRETg1GXGdjl2k0zsn-20" value="被网络延迟" style="rounded=0;whiteSpace=wrap;html=1;fontSize=16;fillColor=#f8cecc;strokeColor=#b85450;" parent="1" vertex="1">
          <mxGeometry x="270" y="330" width="90" height="40" as="geometry" />
        </mxCell>
        <mxCell id="-hhRETg1GXGdjl2k0zsn-22" value="&lt;span style=&quot;color: rgb(255 , 51 , 51)&quot;&gt;PUSH, ACK&lt;/span&gt;&lt;br style=&quot;color: rgb(255 , 51 , 51)&quot;&gt;&lt;span style=&quot;color: rgb(255 , 51 , 51)&quot;&gt;seq=y&lt;/span&gt;&lt;br style=&quot;color: rgb(255 , 51 , 51)&quot;&gt;&lt;span style=&quot;color: rgb(255 , 51 , 51)&quot;&gt;ack = x + 1&lt;/span&gt;&lt;br style=&quot;color: rgb(255 , 51 , 51)&quot;&gt;&lt;span style=&quot;color: rgb(255 , 51 , 51)&quot;&gt;len = 100&lt;/span&gt;&lt;font color=&quot;#ff3333&quot;&gt;&lt;br&gt;&lt;/font&gt;" style="edgeStyle=none;rounded=0;orthogonalLoop=1;jettySize=auto;html=1;fontSize=16;strokeWidth=2;fillColor=#f8cecc;strokeColor=#b85450;" parent="1" edge="1">
          <mxGeometry relative="1" as="geometry">
            <mxPoint x="360" y="480" as="sourcePoint" />
            <mxPoint x="240" y="530" as="targetPoint" />
          </mxGeometry>
        </mxCell>
      </root>
    </mxGraphModel>
  </diagram>
</mxfile>
